<?xml version="1.0" encoding="iso-8859-1"?>
<!-- Generator: Adobe Illustrator 19.0.0, SVG Export Plug-In . SVG Version: 6.00 Build 0)  -->
<svg version="1.1" id="Capa_1" xmlns="http://www.w3.org/2000/svg" xmlns:xlink="http://www.w3.org/1999/xlink" x="0px" y="0px"
	 viewBox="0 0 512 512" style="enable-background:new 0 0 512 512;" xml:space="preserve">
<g>
	<g>
		<g>
			<polygon points="85.656,0 85.656,128 229.656,128 229.656,224 261.656,224 261.656,96 117.656,96 117.656,32 469.656,32 
				469.656,96 325.656,96 325.656,480 261.656,480 261.656,384 229.656,384 229.656,512 357.656,512 357.656,128 501.656,128 
				501.656,0 			"/>
			<rect x="229.656" y="256" width="32" height="32"/>
			<rect x="229.656" y="320" width="32" height="32"/>
			<polygon points="85.656,441.376 85.656,384 53.656,384 53.656,441.376 32.968,420.688 10.344,443.312 69.656,502.624 
				128.968,443.312 106.344,420.688 			"/>
			<polygon points="10.344,228.688 32.968,251.312 53.656,230.624 53.656,288 85.656,288 85.656,230.624 106.344,251.312 
				128.968,228.688 69.656,169.376 			"/>
			<rect x="53.656" y="320" width="32" height="32"/>
		</g>
	</g>
</g>
<g>
</g>
<g>
</g>
<g>
</g>
<g>
</g>
<g>
</g>
<g>
</g>
<g>
</g>
<g>
</g>
<g>
</g>
<g>
</g>
<g>
</g>
<g>
</g>
<g>
</g>
<g>
</g>
<g>
</g>
</svg>
